<mxfile host="app.diagrams.net" modified="2021-05-12T03:41:51.842Z" agent="5.0 (Macintosh; Intel Mac OS X 10_13_1) AppleWebKit/537.36 (KHTML, like Gecko) Chrome/90.0.4430.93 Safari/537.36" etag="UDSJxfmFF0GDyJodllP5" version="14.4.3" type="github">
  <diagram id="VFwWT3bZCJpLSUX3YE0b" name="第 1 页">
    <mxGraphModel dx="1426" dy="914" grid="0" gridSize="10" guides="1" tooltips="1" connect="1" arrows="1" fold="1" page="1" pageScale="1" pageWidth="827" pageHeight="1169" math="0" shadow="0">
      <root>
        <mxCell id="0" />
        <mxCell id="1" parent="0" />
        <mxCell id="gGyaRyKulvAllsPGfK24-13" value="" style="rounded=0;whiteSpace=wrap;html=1;fillColor=#d5e8d4;strokeColor=#82b366;" vertex="1" parent="1">
          <mxGeometry x="380" y="200" width="410" height="160" as="geometry" />
        </mxCell>
        <mxCell id="gGyaRyKulvAllsPGfK24-12" value="" style="rounded=0;whiteSpace=wrap;html=1;fillColor=#f5f5f5;strokeColor=#666666;fontColor=#333333;" vertex="1" parent="1">
          <mxGeometry x="80" y="200" width="240" height="160" as="geometry" />
        </mxCell>
        <mxCell id="gGyaRyKulvAllsPGfK24-1" value="音视频通信&lt;br&gt;(阿里云服务)" style="rounded=1;whiteSpace=wrap;html=1;" vertex="1" parent="1">
          <mxGeometry x="120" y="240" width="160" height="80" as="geometry" />
        </mxCell>
        <mxCell id="gGyaRyKulvAllsPGfK24-2" value="" style="shape=umlActor;verticalLabelPosition=bottom;verticalAlign=top;html=1;outlineConnect=0;" vertex="1" parent="1">
          <mxGeometry x="185" y="30" width="30" height="60" as="geometry" />
        </mxCell>
        <mxCell id="gGyaRyKulvAllsPGfK24-6" value="" style="edgeStyle=orthogonalEdgeStyle;rounded=0;orthogonalLoop=1;jettySize=auto;html=1;startArrow=blockThin;startFill=1;" edge="1" parent="1" source="gGyaRyKulvAllsPGfK24-4" target="gGyaRyKulvAllsPGfK24-1">
          <mxGeometry relative="1" as="geometry" />
        </mxCell>
        <mxCell id="gGyaRyKulvAllsPGfK24-4" value="App&lt;br&gt;rtc-sdk" style="rounded=1;whiteSpace=wrap;html=1;" vertex="1" parent="1">
          <mxGeometry x="160" y="90" width="80" height="40" as="geometry" />
        </mxCell>
        <mxCell id="gGyaRyKulvAllsPGfK24-7" value="业务应用服务端&lt;br&gt;(rtc-sdk)" style="rounded=1;whiteSpace=wrap;html=1;" vertex="1" parent="1">
          <mxGeometry x="414" y="240" width="160" height="80" as="geometry" />
        </mxCell>
        <mxCell id="gGyaRyKulvAllsPGfK24-8" value="" style="endArrow=classic;startArrow=classic;html=1;exitX=1;exitY=0.5;exitDx=0;exitDy=0;entryX=0;entryY=0.5;entryDx=0;entryDy=0;" edge="1" parent="1" source="gGyaRyKulvAllsPGfK24-1" target="gGyaRyKulvAllsPGfK24-7">
          <mxGeometry width="50" height="50" relative="1" as="geometry">
            <mxPoint x="390" y="480" as="sourcePoint" />
            <mxPoint x="440" y="430" as="targetPoint" />
          </mxGeometry>
        </mxCell>
        <mxCell id="gGyaRyKulvAllsPGfK24-9" value="" style="shape=umlActor;verticalLabelPosition=bottom;verticalAlign=top;html=1;outlineConnect=0;" vertex="1" parent="1">
          <mxGeometry x="705" y="220" width="30" height="60" as="geometry" />
        </mxCell>
        <mxCell id="gGyaRyKulvAllsPGfK24-10" value="web&lt;br&gt;rtc-sdk" style="rounded=1;whiteSpace=wrap;html=1;" vertex="1" parent="1">
          <mxGeometry x="680" y="280" width="80" height="40" as="geometry" />
        </mxCell>
        <mxCell id="gGyaRyKulvAllsPGfK24-11" value="" style="endArrow=classic;startArrow=classic;html=1;exitX=1;exitY=0.5;exitDx=0;exitDy=0;" edge="1" parent="1">
          <mxGeometry width="50" height="50" relative="1" as="geometry">
            <mxPoint x="574" y="280" as="sourcePoint" />
            <mxPoint x="680" y="280" as="targetPoint" />
          </mxGeometry>
        </mxCell>
        <mxCell id="gGyaRyKulvAllsPGfK24-14" value="阿里云" style="text;html=1;strokeColor=none;fillColor=none;align=center;verticalAlign=middle;whiteSpace=wrap;rounded=0;fontStyle=1;fontColor=#0000CC;fontSize=15;" vertex="1" parent="1">
          <mxGeometry x="170" y="330" width="60" height="20" as="geometry" />
        </mxCell>
        <mxCell id="gGyaRyKulvAllsPGfK24-15" value="企业专有云" style="text;html=1;strokeColor=none;fillColor=none;align=center;verticalAlign=middle;whiteSpace=wrap;rounded=0;fontStyle=1;fontColor=#0000CC;fontSize=15;" vertex="1" parent="1">
          <mxGeometry x="560" y="330" width="90" height="20" as="geometry" />
        </mxCell>
        <mxCell id="gGyaRyKulvAllsPGfK24-16" value="C端用户" style="text;html=1;strokeColor=none;fillColor=none;align=center;verticalAlign=middle;whiteSpace=wrap;rounded=0;fontStyle=1;fontColor=#0000CC;fontSize=15;" vertex="1" parent="1">
          <mxGeometry x="155" y="5" width="90" height="20" as="geometry" />
        </mxCell>
      </root>
    </mxGraphModel>
  </diagram>
</mxfile>
